<svg width="163.903" height="49.6" viewBox="0 0 163.903 49.6" xmlns="http://www.w3.org/2000/svg"><g id="svgGroup" stroke-linecap="round" fill-rule="evenodd" font-size="9pt" stroke="#000000" stroke-width="0.25mm" fill="#000000" style="stroke:#000000;stroke-width:0.25mm;fill:#000000"><path d="M 47.202 42.55 Q 45.552 42.55 44.927 41.625 Q 44.302 40.7 44.302 39.35 Q 44.302 37.9 44.802 36.275 Q 45.302 34.65 45.752 33.65 Q 47.102 30.5 49.152 28.725 Q 51.202 26.95 52.902 26.95 Q 54.352 26.95 54.877 27.8 Q 55.402 28.65 55.402 29.9 Q 55.402 31.2 54.977 32.625 Q 54.552 34.05 54.052 35.05 Q 53.452 36.3 52.802 37.4 Q 52.152 38.5 51.452 39.4 Q 51.902 39.8 52.552 39.8 Q 53.552 39.8 54.527 38.85 Q 55.502 37.9 56.377 36.5 Q 57.252 35.1 57.927 33.8 Q 58.602 32.5 58.952 31.85 A 0.268 0.268 0 0 1 59.097 31.715 A 100.678 100.678 0 0 1 60.227 29.625 Q 60.852 28.5 61.702 27.725 Q 62.552 26.95 63.652 26.95 Q 64.152 26.95 64.802 27.2 Q 65.502 27.5 65.502 28.55 Q 65.502 29.1 65.302 29.9 Q 65.102 30.7 64.752 31.7 Q 66.052 29.85 67.502 28.525 Q 68.952 27.2 70.152 27.2 Q 72.102 27.2 72.102 29.05 Q 72.102 30 71.402 31.7 Q 72.702 29.85 74.152 28.525 Q 75.602 27.2 76.802 27.2 Q 78.602 27.2 78.602 28.85 Q 78.602 29.85 78.052 31.4 Q 77.502 32.95 76.652 35 Q 75.752 37.1 75.327 38.525 Q 74.902 39.95 74.902 40.75 Q 74.902 41.7 75.552 41.7 A 4.366 4.366 0 0 0 77.706 40.48 A 17.572 17.572 0 0 0 77.802 40.4 Q 79.252 39.1 80.502 37.125 A 80.002 80.002 0 0 0 81.715 35.099 A 20.312 20.312 0 0 1 82.302 33.65 Q 83.902 30.3 86.777 28.525 Q 89.652 26.75 92.702 26.75 L 93.527 26.75 Q 93.952 26.75 94.352 26.85 Q 95.352 27 95.352 27.1 Q 95.352 27.2 94.627 27.3 Q 93.902 27.4 93.552 27.4 Q 91.102 27.4 89.177 28.7 Q 87.252 30 85.902 32 Q 84.552 34 83.827 36.075 Q 83.102 38.15 83.102 39.65 Q 83.102 40.6 83.427 41.2 Q 83.752 41.8 84.402 41.8 Q 85.102 41.8 86.002 40.85 Q 86.902 39.9 87.752 38.525 Q 88.602 37.15 89.302 35.825 Q 90.002 34.5 90.352 33.8 L 92.502 29.3 Q 93.352 29.1 94.227 28.825 Q 95.102 28.55 95.902 28.2 Q 95.052 29.65 94.277 31.25 Q 93.502 32.85 92.702 34.4 Q 92.102 35.55 91.527 37.1 A 8.145 8.145 0 0 0 90.952 39.9 L 90.952 40.1 Q 90.952 40.5 91.052 40.975 Q 91.152 41.45 91.602 41.45 Q 92.152 41.45 93.002 40.775 Q 93.852 40.1 94.202 39.75 Q 95.802 38.15 96.977 36.2 A 57.325 57.325 0 0 0 98.92 32.709 A 76.319 76.319 0 0 1 99.327 31.8 Q 100.252 29.8 101.202 27.95 L 99.852 27.95 Q 99.652 27.95 99.652 27.75 Q 99.652 27.6 99.802 27.4 A 0.432 0.432 0 0 1 100.152 27.2 L 101.602 27.2 L 105.202 20 Q 106.052 19.8 107.027 19.525 Q 108.002 19.25 108.802 18.9 Q 108.002 20.25 106.602 22.425 Q 105.202 24.6 103.752 27.2 L 107.302 27.2 Q 107.502 27.2 107.502 27.4 Q 107.502 27.55 107.352 27.75 Q 107.202 27.95 107.002 27.95 L 103.302 27.95 Q 101.752 30.7 100.527 33.65 Q 99.302 36.6 98.902 39.2 Q 98.852 39.4 98.852 39.625 L 98.852 40 Q 98.852 41.35 99.752 41.35 Q 100.302 41.35 101.002 40.875 Q 101.702 40.4 102.352 39.75 Q 103.952 38.15 105.127 36.2 A 57.325 57.325 0 0 0 106.681 33.454 A 13.316 13.316 0 0 1 110.002 28.725 Q 112.052 26.95 113.752 26.95 Q 115.202 26.95 115.727 27.8 Q 116.252 28.65 116.252 29.9 Q 116.252 31.2 115.827 32.625 Q 115.402 34.05 114.902 35.05 Q 114.302 36.3 113.652 37.4 Q 113.002 38.5 112.302 39.4 Q 112.752 39.8 113.402 39.8 Q 114.402 39.8 115.377 38.85 Q 116.352 37.9 117.227 36.5 Q 118.102 35.1 118.777 33.8 A 160.011 160.011 0 0 1 119.529 32.363 A 24.387 24.387 0 0 1 119.102 31.45 Q 116.852 26.6 116.852 20.1 Q 116.852 15.7 118.577 12.6 Q 120.302 9.5 123.027 7.85 Q 125.752 6.2 128.702 6.2 Q 131.852 6.2 134.727 8.25 Q 137.602 10.3 139.002 14.7 Q 139.402 15.85 139.677 17.3 Q 139.952 18.75 140.152 20.4 Q 142.052 18.1 143.952 15.875 Q 145.852 13.65 147.852 11.5 Q 149.202 10.05 150.952 8.775 Q 152.702 7.5 154.627 6.7 Q 156.552 5.9 158.352 5.9 Q 160.002 5.9 161.452 6.725 Q 162.902 7.55 163.852 9.45 Q 163.902 9.5 163.902 9.6 Q 163.902 9.8 163.652 9.9 A 0.409 0.409 0 0 1 163.502 9.933 A 0.214 0.214 0 0 1 163.302 9.8 Q 162.402 8.2 161.202 7.5 Q 160.002 6.8 158.652 6.8 Q 157.052 6.8 155.327 7.6 Q 153.602 8.4 151.977 9.65 Q 150.352 10.9 149.002 12.3 Q 147.052 14.35 144.877 16.85 Q 142.702 19.35 140.402 22.1 Q 140.802 25.3 141.277 28.775 Q 141.752 32.25 142.602 35.35 Q 143.452 38.45 144.952 40.6 Q 146.552 39 147.477 36.575 Q 148.402 34.15 148.402 30.9 Q 148.402 29.2 147.402 27.875 Q 146.402 26.55 145.552 26.3 Q 145.252 26.2 145.252 25.95 Q 145.252 25.8 145.402 25.65 Q 145.552 25.5 145.752 25.6 Q 146.502 25.8 147.277 26.575 Q 148.052 27.35 148.602 28.475 Q 149.152 29.6 149.152 30.9 Q 149.152 34.4 148.127 36.95 Q 147.102 39.5 145.402 41.15 Q 145.602 41.45 146.127 41.975 Q 146.652 42.5 147.477 42.925 Q 148.302 43.35 149.252 43.35 Q 150.952 43.35 152.827 41.825 Q 154.702 40.3 156.452 37.85 Q 158.202 35.4 159.502 32.7 Q 159.652 32.45 159.852 32.45 Q 160.202 32.45 160.052 32.85 Q 158.652 35.8 156.577 38.725 Q 154.502 41.65 152.102 43.35 Q 151.252 43.95 150.327 44.225 Q 149.402 44.5 148.502 44.5 Q 146.902 44.5 145.502 43.925 Q 144.102 43.35 143.402 42.7 Q 140.602 44.4 136.952 44.4 Q 134.052 44.4 131.027 43.25 Q 128.002 42.1 125.352 39.9 Q 123.502 42 121.802 43.75 Q 120.402 45.2 118.627 46.55 Q 116.852 47.9 114.977 48.75 Q 113.102 49.6 111.302 49.6 Q 109.802 49.6 108.502 48.825 Q 107.202 48.05 106.252 46.2 Q 106.202 46.15 106.202 46 Q 106.202 45.75 106.427 45.675 A 0.315 0.315 0 0 1 106.527 45.658 A 0.327 0.327 0 0 1 106.802 45.85 Q 107.652 47.3 108.777 47.95 Q 109.902 48.6 111.252 48.6 Q 113.052 48.6 114.977 47.675 Q 116.902 46.75 118.727 45.325 Q 120.552 43.9 121.902 42.4 Q 122.602 41.65 123.327 40.9 Q 124.052 40.15 124.702 39.35 A 24.387 24.387 0 0 1 119.846 32.984 A 61.631 61.631 0 0 1 118.227 36.05 Q 117.052 38.15 115.602 39.5 Q 115.002 40.05 114.452 40.3 Q 113.902 40.55 113.452 40.55 Q 112.602 40.55 111.952 39.9 Q 111.002 41.15 110.002 41.85 Q 109.002 42.55 108.052 42.55 Q 106.402 42.55 105.777 41.625 Q 105.152 40.7 105.152 39.35 A 10.468 10.468 0 0 1 105.558 36.586 A 62.974 62.974 0 0 1 105.402 36.85 Q 104.452 38.45 103.102 39.9 Q 102.352 40.7 101.202 41.6 Q 100.052 42.5 98.852 42.5 Q 97.702 42.5 97.202 41.65 Q 96.702 40.8 96.702 39.65 A 7.961 7.961 0 0 1 97.286 36.709 A 100.199 100.199 0 0 1 97.202 36.85 Q 96.252 38.45 94.952 39.9 Q 94.152 40.7 93.002 41.6 Q 91.852 42.5 90.702 42.5 Q 89.602 42.5 89.152 41.625 Q 88.702 40.75 88.702 39.65 Q 88.702 38.95 88.827 38.275 Q 88.952 37.6 89.102 37.1 Q 88.752 38 87.877 39.3 Q 87.002 40.6 85.927 41.575 Q 84.852 42.55 83.802 42.55 Q 82.102 42.55 81.477 41.6 Q 80.852 40.65 80.852 39.25 A 10.226 10.226 0 0 1 81.043 37.39 A 59.133 59.133 0 0 1 80.618 38.061 A 24.418 24.418 0 0 1 79.252 39.95 Q 77.152 42.55 74.502 42.55 Q 72.402 42.55 72.402 40.15 Q 72.402 38.25 73.802 35.3 Q 74.252 34.45 74.927 33.275 Q 75.602 32.1 76.152 30.95 Q 76.702 29.8 76.702 29.15 Q 76.702 28.5 76.002 28.5 Q 75.052 28.5 74.027 29.525 Q 73.002 30.55 72.002 32.15 Q 71.002 33.75 70.102 35.5 Q 69.202 37.25 68.552 38.775 Q 67.902 40.3 67.602 41.1 Q 67.302 41.85 66.752 42.05 Q 66.202 42.25 65.577 42.25 Q 64.952 42.25 64.402 42.45 Q 65.102 40.85 65.552 39.85 Q 66.002 38.85 66.477 37.8 Q 66.952 36.75 67.702 35.05 Q 68.102 34.2 68.652 33.1 Q 69.202 32 69.652 30.95 Q 70.102 29.9 70.102 29.25 Q 70.102 28.5 69.352 28.5 Q 68.402 28.5 67.377 29.525 Q 66.352 30.55 65.352 32.15 Q 64.352 33.75 63.452 35.5 Q 62.552 37.25 61.902 38.775 Q 61.252 40.3 60.952 41.1 Q 60.652 41.85 60.102 42.05 Q 59.552 42.25 58.927 42.25 Q 58.302 42.25 57.752 42.45 Q 58.452 40.85 58.902 39.85 Q 59.352 38.85 59.852 37.825 Q 60.352 36.8 61.052 35.05 Q 61.452 34.15 61.952 32.975 Q 62.452 31.8 62.827 30.675 Q 63.202 29.55 63.202 28.9 Q 63.202 28.15 62.702 28.15 A 1.626 1.626 0 0 0 61.502 28.9 Q 60.902 29.65 60.427 30.575 Q 59.952 31.5 59.652 32.05 Q 59.052 33.2 58.277 34.575 Q 57.502 35.95 56.752 37.15 A 0.231 0.231 0 0 1 56.627 37.283 A 14.012 14.012 0 0 1 54.752 39.5 Q 54.152 40.05 53.602 40.3 Q 53.052 40.55 52.602 40.55 Q 51.752 40.55 51.102 39.9 Q 50.152 41.15 49.152 41.85 Q 48.152 42.55 47.202 42.55 Z M 18.452 10.3 L 18.502 10.3 Q 18.902 10.3 18.902 10.7 Q 18.902 11 18.552 11.05 Q 15.752 11.4 13.127 12.25 Q 10.502 13.1 8.302 14.4 Q 8.602 15.8 9.427 17.175 Q 10.252 18.55 11.552 19.6 Q 13.502 17.9 15.877 16.525 Q 18.252 15.15 21.052 14.2 Q 24.802 12.95 27.752 12.95 Q 32.052 12.95 34.177 15.175 Q 36.302 17.4 36.302 20.55 Q 36.302 23.1 34.927 25.85 Q 33.552 28.6 30.777 30.95 Q 28.002 33.3 23.902 34.775 Q 19.802 36.25 14.302 36.25 Q 11.852 36.25 9.577 35.775 Q 7.302 35.3 5.402 34.35 Q 5.352 34.8 5.327 35.25 Q 5.302 35.7 5.302 36.15 Q 5.302 39.25 6.427 41.825 Q 7.552 44.4 9.877 45.95 Q 12.202 47.5 15.752 47.5 Q 19.802 47.5 23.127 46.025 Q 26.452 44.55 29.177 42 Q 31.902 39.45 34.177 36.15 Q 36.452 32.85 38.377 29.15 Q 40.302 25.45 42.027 21.75 Q 43.752 18.05 45.427 14.65 Q 47.102 11.25 48.802 8.55 Q 44.602 7.65 40.252 6.425 Q 35.902 5.2 31.902 4.15 Q 29.902 3.6 27.902 3.375 Q 25.902 3.15 24.002 3.15 Q 19.802 3.15 16.277 4.225 Q 12.752 5.3 10.552 7.275 Q 8.352 9.25 8.102 11.95 Q 8.102 12.15 8.077 12.3 Q 8.052 12.45 8.052 12.65 Q 8.052 12.85 8.077 13.125 Q 8.102 13.4 8.152 13.65 Q 10.402 12.35 13.027 11.325 Q 15.652 10.3 18.452 10.3 Z M 55.452 2.3 L 55.602 2.3 Q 55.952 2.3 55.952 2.65 Q 55.952 2.95 55.702 3 Q 54.452 3.4 53.327 4.325 Q 52.202 5.25 51.102 6.6 Q 54.052 7.4 56.802 7.9 Q 59.552 8.4 61.852 8.4 Q 63.602 8.4 65.027 8.075 Q 66.452 7.75 67.552 7 Q 70.052 5.3 70.502 1.95 Q 70.502 1.6 70.852 1.6 Q 71.002 1.6 71.152 1.725 Q 71.302 1.85 71.252 2.05 Q 71.052 3.85 70.227 5.225 Q 69.402 6.6 68.152 7.5 Q 66.452 8.75 64.152 9.3 Q 61.852 9.85 59.152 9.85 Q 57.002 9.85 54.577 9.525 Q 52.152 9.2 49.602 8.7 Q 49.202 9.35 48.752 10.05 Q 48.302 10.75 47.902 11.5 Q 46.652 13.75 45.752 16.825 Q 44.852 19.9 43.902 23.375 Q 42.952 26.85 41.652 30.375 Q 40.352 33.9 38.377 37.1 Q 36.402 40.3 33.402 42.825 Q 30.402 45.35 26.077 46.8 A 31.78 31.78 0 0 1 16.496 48.244 A 48.371 48.371 0 0 1 15.752 48.25 Q 11.602 48.25 8.852 46.6 Q 6.102 44.95 4.752 42.2 Q 3.402 39.45 3.402 36.15 Q 3.402 35.45 3.477 34.725 Q 3.552 34 3.652 33.25 Q 1.952 31.95 0.977 30.05 Q 0.002 28.15 0.002 25.65 Q 0.002 22.05 2.052 19.1 Q 4.102 16.15 7.402 14.1 Q 7.352 13.75 7.327 13.425 Q 7.302 13.1 7.302 12.75 L 7.302 12.375 Q 7.302 12.2 7.352 12 Q 7.752 8.55 9.477 5.825 Q 11.202 3.1 14.727 1.55 A 21.18 21.18 0 0 1 22.249 0.038 A 38.909 38.909 0 0 1 24.002 0 Q 25.002 0 26.102 0.05 Q 27.202 0.1 28.352 0.2 Q 30.952 0.45 34.527 1.5 Q 38.102 2.55 42.177 3.9 Q 46.252 5.25 50.302 6.4 Q 51.502 4.85 52.777 3.8 Q 54.052 2.75 55.452 2.3 Z M 22.652 21.2 L 22.802 21.2 Q 23.102 21.2 23.102 21.55 Q 23.102 21.85 22.852 21.9 Q 21.602 22.25 20.452 22.4 Q 19.302 22.55 18.252 22.55 Q 16.302 22.55 14.727 22.075 Q 13.152 21.6 11.902 20.8 Q 9.252 23.55 7.652 26.825 Q 6.052 30.1 5.552 33.35 Q 7.502 34.45 9.977 35 Q 12.452 35.55 15.102 35.55 Q 19.952 35.55 23.627 34.15 Q 27.302 32.75 29.802 30.525 Q 32.302 28.3 33.552 25.725 Q 34.802 23.15 34.802 20.75 Q 34.802 17.85 32.952 15.85 Q 31.102 13.85 27.252 13.85 Q 24.652 13.85 21.302 14.95 Q 18.702 15.8 16.477 17.175 Q 14.252 18.55 12.452 20.25 Q 13.602 20.95 15.052 21.375 Q 16.502 21.8 18.252 21.8 Q 19.252 21.8 20.352 21.675 Q 21.452 21.55 22.652 21.2 Z M 125.352 38.6 Q 128.552 34.9 131.552 31.125 Q 134.552 27.35 137.602 23.6 Q 137.552 21.55 137.402 19.625 Q 137.252 17.7 136.952 16 Q 136.002 11 133.727 8.825 Q 131.452 6.65 128.802 6.65 Q 126.852 6.65 124.952 7.675 Q 123.052 8.7 121.502 10.525 Q 119.952 12.35 119.027 14.8 Q 118.102 17.25 118.102 20.1 Q 118.102 26.3 120.177 30.975 Q 122.252 35.65 125.352 38.6 Z M 137.102 43.65 Q 140.202 43.65 142.802 42.2 Q 140.602 40.3 139.552 37.6 Q 138.502 34.9 138.152 31.725 Q 137.802 28.55 137.652 25.4 L 131.752 32.5 Q 128.802 36.05 126.002 39.2 Q 128.502 41.35 131.427 42.5 Q 134.352 43.65 137.102 43.65 Z M 3.902 32.2 Q 4.602 29.05 6.377 25.9 Q 8.152 22.75 10.952 20.15 Q 9.652 19.05 8.802 17.65 Q 7.952 16.25 7.552 14.85 Q 4.502 16.85 2.627 19.6 Q 0.752 22.35 0.752 25.6 Q 0.752 27.7 1.602 29.35 Q 2.452 31 3.902 32.2 Z M 47.802 41.8 Q 48.352 41.8 49.102 41.125 Q 49.852 40.45 50.652 39.35 L 50.377 38.85 Q 50.102 38.35 50.102 37.35 Q 50.102 36.95 50.152 36.475 Q 50.202 36 50.402 35.5 Q 50.752 34.5 51.252 34.025 Q 51.752 33.55 52.252 33.55 Q 52.702 33.55 52.977 33.975 A 1.28 1.28 0 0 1 53.155 34.682 A 2.828 2.828 0 0 1 53.102 35.2 Q 53.802 33.65 54.252 32.175 Q 54.702 30.7 54.702 29.6 Q 54.702 28.75 54.377 28.225 Q 54.052 27.7 53.252 27.7 Q 52.552 27.7 51.652 28.575 Q 50.752 29.45 49.827 30.875 Q 48.902 32.3 48.127 33.95 Q 47.352 35.6 46.877 37.175 Q 46.402 38.75 46.402 39.9 Q 46.402 40.75 46.727 41.275 Q 47.052 41.8 47.802 41.8 Z M 108.652 41.8 Q 109.202 41.8 109.952 41.125 Q 110.702 40.45 111.502 39.35 L 111.227 38.85 Q 110.952 38.35 110.952 37.35 Q 110.952 36.95 111.002 36.475 Q 111.052 36 111.252 35.5 Q 111.602 34.5 112.102 34.025 Q 112.602 33.55 113.102 33.55 Q 113.552 33.55 113.827 33.975 A 1.28 1.28 0 0 1 114.005 34.682 A 2.828 2.828 0 0 1 113.952 35.2 Q 114.652 33.65 115.102 32.175 Q 115.552 30.7 115.552 29.6 Q 115.552 28.75 115.227 28.225 Q 114.902 27.7 114.102 27.7 Q 113.402 27.7 112.502 28.575 Q 111.602 29.45 110.677 30.875 Q 109.752 32.3 108.977 33.95 Q 108.202 35.6 107.727 37.175 Q 107.252 38.75 107.252 39.9 Q 107.252 40.75 107.577 41.275 Q 107.902 41.8 108.652 41.8 Z"/></g></svg>